# xmcd CD database file
#
# Track frame offsets:
#	150
#	13509
#	25064
#	37772
#	49319
#	61918
#	76069
#	87853
#	102502
#	117466
#
# Disc length: 1757 seconds
#
# Revision: 0
# Processed by: cddbd v1.5.2PL0 Copyright (c) Steve Scherf et al.
# Submitted via: CDex 1.50beta10
#
DISCID=7006db0a
DTITLE=Lacy J. Dalton - Lacy J. Dalton
DYEAR=1980
DGENRE=Country
TTITLE0=Crazy Blue Eyes
TTITLE1=High Like An Angel
TTITLE2=Honky Tonk Man
TTITLE3=Carolina Come-On
TTITLE4=Beer Drinkin' Song
TTITLE5=Tennessee Waltz
TTITLE6=Late Night Kind Of Lonesome
TTITLE7=Losing Kind Of Love
TTITLE8=Are There Any Cowboys Left (In The Good Ol' U.S.A.)?
TTITLE9=Turn My Head Around
EXTD=YEAR: 1980
EXTT0=
EXTT1=
EXTT2=
EXTT3=
EXTT4=
EXTT5=
EXTT6=
EXTT7=
EXTT8=
EXTT9=
PLAYORDER=
